<svg version="1.1" class="clearos-svg clearfoundation app-vendor-clearfoundation app-free app-category-reports app-sub-category-user-management" viewBox="0 0 400 400" preserveAspectRatio="xMinYMin" xmlns="http://www.w3.org/2000/svg" xmlns:xlink= "http://www.w3.org/1999/xlink">
<path fill="#AA0707" d="M91.666,184.647"/>
<path fill="#AA0707" d="M123.245,247.805"/>
<path fill="#AA0707" d="M91.666,184.647"/>
<path fill="#AA0707" d="M123.245,247.805"/>
<g>
	<g>
		<path fill="#686868" d="M129.146,143.563c-69.58,0-125.969,56.389-125.969,125.959c0,69.588,56.389,125.984,125.969,125.984
			c69.571,0,125.977-56.396,125.977-125.984C255.123,199.934,198.718,143.563,129.146,143.563z M129.146,382.73
			c-62.527,0-113.209-50.656-113.209-113.209c0-62.486,50.682-113.167,113.209-113.167c62.545,0,113.201,50.681,113.201,113.167
			C242.381,332.041,191.691,382.73,129.146,382.73z"/>
		<g>
			<path fill="#686868" d="M121.738,167.58v-0.282c-35.475,3.395-64.917,30.854-76.292,68.261h23.039
				C76.458,199.155,96.933,172.133,121.738,167.58z"/>
			<path fill="#686868" d="M64.769,269.521c0-7.002,0.439-13.838,1.294-20.408H42.137c-1.137,6.57-1.767,13.373-1.767,20.408
				c0,6.734,0.613,13.355,1.684,19.729h23.959C65.208,282.879,64.769,276.258,64.769,269.521z"/>
			<path fill="#686868" d="M68.287,302.789H45.231c11.176,37.748,40.81,65.49,76.507,68.941v-0.314
				C96.759,366.852,76.185,339.541,68.287,302.789z"/>
			<path fill="#686868" d="M121.738,249.113H78.093c-1.054,6.537-1.651,13.355-1.651,20.408c0,6.854,0.564,13.391,1.526,19.744
				h43.754v-40.152H121.738L121.738,249.113z"/>
			<path fill="#686868" d="M121.738,186.354c-18.317,4.114-33.558,23.169-40.775,49.205h40.759v-49.205H121.738z"/>
			<path fill="#686868" d="M135.261,289.25h45.073c0.971-6.338,1.518-12.908,1.518-19.762c0-7.02-0.598-13.838-1.634-20.375h-44.957
				V289.25z"/>
			<path fill="#686868" d="M177.363,235.559c-7.407-26.664-23.229-46.029-42.104-49.544v49.544H177.363z"/>
			<path fill="#686868" d="M135.261,352.965c19.031-3.502,34.985-23.146,42.277-50.176h-42.277V352.965L135.261,352.965z"/>
			<path fill="#686868" d="M80.738,302.789c7.135,26.398,22.499,45.746,40.967,49.895v-49.895H80.738z"/>
			<path fill="#686868" d="M189.833,235.559h23.047c-11.507-37.848-41.597-65.5-77.619-68.352v0.142
				C160.646,171.171,181.678,198.524,189.833,235.559z"/>
			<path fill="#686868" d="M193.508,269.521c0,6.734-0.431,13.355-1.229,19.729h23.986c1.094-6.371,1.69-12.992,1.69-19.729
				c0-7.002-0.599-13.838-1.758-20.408H192.23C193.102,255.717,193.508,262.52,193.508,269.521z"/>
			<path fill="#686868" d="M135.261,371.697v0.133c36.263-2.854,66.485-30.828,77.851-69.023h-23.104
				C181.952,340.188,160.779,367.863,135.261,371.697z"/>
		</g>
	</g>
	<path fill="#686868" d="M288.408,4.494H117.475V4.51H68.544v132.406c6.554-2.995,13.332-5.542,20.35-7.549V28.751h170.577v126.035
		h117.011v216.479h-142.86c-9.193,9.457-19.68,17.57-31.127,24.24h194.328V329.75V123.526L288.408,4.494z M281.639,134.278V30.893
		l94.875,103.37h-94.875V134.278z"/>
</g>
</svg>
